<svg width="127" height="25" viewBox="0 0 127 25" fill="none" xmlns="http://www.w3.org/2000/svg">
<path d="M0.765625 8.3125C0.765625 7.38542 0.942708 6.51562 1.29688 5.70312C1.65104 4.89062 2.13021 4.18229 2.73438 3.57812C3.34896 2.96354 4.0625 2.47917 4.875 2.125C5.6875 1.77083 6.55729 1.59375 7.48438 1.59375H17.7656V6.07812H7.48438C7.17188 6.07812 6.88021 6.13542 6.60938 6.25C6.33854 6.36458 6.09896 6.52604 5.89062 6.73438C5.69271 6.93229 5.53646 7.16667 5.42188 7.4375C5.30729 7.70833 5.25 8 5.25 8.3125C5.25 8.625 5.30729 8.92188 5.42188 9.20312C5.53646 9.47396 5.69271 9.71354 5.89062 9.92188C6.09896 10.1198 6.33854 10.276 6.60938 10.3906C6.88021 10.5052 7.17188 10.5625 7.48438 10.5625H11.9688C12.8958 10.5625 13.7656 10.7396 14.5781 11.0938C15.401 11.4375 16.1146 11.9167 16.7188 12.5312C17.3333 13.1354 17.8125 13.849 18.1562 14.6719C18.5104 15.4844 18.6875 16.3542 18.6875 17.2812C18.6875 18.2083 18.5104 19.0781 18.1562 19.8906C17.8125 20.7031 17.3333 21.4167 16.7188 22.0312C16.1146 22.6354 15.401 23.1146 14.5781 23.4688C13.7656 23.8229 12.8958 24 11.9688 24H2.01562V19.5156H11.9688C12.2812 19.5156 12.5729 19.4583 12.8438 19.3438C13.1146 19.2292 13.349 19.0729 13.5469 18.875C13.7552 18.6667 13.9167 18.4271 14.0312 18.1562C14.1458 17.8854 14.2031 17.5938 14.2031 17.2812C14.2031 16.9688 14.1458 16.6771 14.0312 16.4062C13.9167 16.1354 13.7552 15.901 13.5469 15.7031C13.349 15.4948 13.1146 15.3333 12.8438 15.2188C12.5729 15.1042 12.2812 15.0469 11.9688 15.0469H7.48438C6.55729 15.0469 5.6875 14.8698 4.875 14.5156C4.0625 14.1615 3.34896 13.6823 2.73438 13.0781C2.13021 12.4635 1.65104 11.75 1.29688 10.9375C0.942708 10.1146 0.765625 9.23958 0.765625 8.3125ZM43.875 24H39.4062V8C39.4062 7.6875 39.3438 7.39583 39.2188 7.125C39.1042 6.85417 38.9427 6.61979 38.7344 6.42188C38.5365 6.21354 38.3021 6.05208 38.0312 5.9375C37.7604 5.82292 37.4688 5.76562 37.1562 5.76562C36.8438 5.76562 36.5521 5.82292 36.2812 5.9375C36.0104 6.05208 35.7708 6.21354 35.5625 6.42188C35.3646 6.61979 35.2083 6.85417 35.0938 7.125C34.9792 7.39583 34.9219 7.6875 34.9219 8V24H30.4375V8C30.4375 7.6875 30.3802 7.39583 30.2656 7.125C30.151 6.85417 29.9896 6.61979 29.7812 6.42188C29.5833 6.21354 29.349 6.05208 29.0781 5.9375C28.8073 5.82292 28.5156 5.76562 28.2031 5.76562C27.8906 5.76562 27.599 5.82292 27.3281 5.9375C27.0573 6.05208 26.8177 6.21354 26.6094 6.42188C26.4115 6.61979 26.2552 6.85417 26.1406 7.125C26.026 7.39583 25.9688 7.6875 25.9688 8V24H21.4844V8C21.4844 7.07292 21.6562 6.20312 22 5.39062C22.3542 4.56771 22.8333 3.85417 23.4375 3.25C24.0521 2.63542 24.7656 2.15625 25.5781 1.8125C26.401 1.45833 27.276 1.28125 28.2031 1.28125C29.0365 1.28125 29.8385 1.43229 30.6094 1.73438C31.3802 2.02604 32.0729 2.45312 32.6875 3.01562C33.3021 2.45312 33.9896 2.02604 34.75 1.73438C35.5208 1.43229 36.3229 1.28125 37.1562 1.28125C38.0833 1.28125 38.9531 1.45833 39.7656 1.8125C40.5885 2.15625 41.3021 2.63542 41.9062 3.25C42.5208 3.85417 43 4.56771 43.3438 5.39062C43.6979 6.20312 43.875 7.07292 43.875 8V24Z" fill="white"/>
<path d="M46.5781 8.3125C46.5781 7.38542 46.7552 6.51562 47.1094 5.70312C47.4635 4.89062 47.9427 4.18229 48.5469 3.57812C49.1615 2.96354 49.875 2.47917 50.6875 2.125C51.5 1.77083 52.3698 1.59375 53.2969 1.59375H63.5781V6.07812H53.2969C52.9844 6.07812 52.6927 6.13542 52.4219 6.25C52.151 6.36458 51.9115 6.52604 51.7031 6.73438C51.5052 6.93229 51.349 7.16667 51.2344 7.4375C51.1198 7.70833 51.0625 8 51.0625 8.3125C51.0625 8.625 51.1198 8.92188 51.2344 9.20312C51.349 9.47396 51.5052 9.71354 51.7031 9.92188C51.9115 10.1198 52.151 10.276 52.4219 10.3906C52.6927 10.5052 52.9844 10.5625 53.2969 10.5625H57.7812C58.7083 10.5625 59.5781 10.7396 60.3906 11.0938C61.2135 11.4375 61.9271 11.9167 62.5312 12.5312C63.1458 13.1354 63.625 13.849 63.9688 14.6719C64.3229 15.4844 64.5 16.3542 64.5 17.2812C64.5 18.2083 64.3229 19.0781 63.9688 19.8906C63.625 20.7031 63.1458 21.4167 62.5312 22.0312C61.9271 22.6354 61.2135 23.1146 60.3906 23.4688C59.5781 23.8229 58.7083 24 57.7812 24H47.8281V19.5156H57.7812C58.0938 19.5156 58.3854 19.4583 58.6562 19.3438C58.9271 19.2292 59.1615 19.0729 59.3594 18.875C59.5677 18.6667 59.7292 18.4271 59.8438 18.1562C59.9583 17.8854 60.0156 17.5938 60.0156 17.2812C60.0156 16.9688 59.9583 16.6771 59.8438 16.4062C59.7292 16.1354 59.5677 15.901 59.3594 15.7031C59.1615 15.4948 58.9271 15.3333 58.6562 15.2188C58.3854 15.1042 58.0938 15.0469 57.7812 15.0469H53.2969C52.3698 15.0469 51.5 14.8698 50.6875 14.5156C49.875 14.1615 49.1615 13.6823 48.5469 13.0781C47.9427 12.4635 47.4635 11.75 47.1094 10.9375C46.7552 10.1146 46.5781 9.23958 46.5781 8.3125ZM75.1094 24C74.0781 24 73.1094 23.8073 72.2031 23.4219C71.2969 23.026 70.5 22.4896 69.8125 21.8125C69.1354 21.125 68.599 20.3281 68.2031 19.4219C67.8177 18.5156 67.625 17.5469 67.625 16.5156V11.5469H65.5469V7.29688H67.625V0.609375H71.875V7.29688H78.3438V11.5469H71.875V16.5156C71.875 16.9635 71.9583 17.3854 72.125 17.7812C72.2917 18.1667 72.5208 18.5052 72.8125 18.7969C73.1042 19.0885 73.4479 19.3229 73.8438 19.5C74.2396 19.6667 74.6615 19.75 75.1094 19.75H78.3438V24H75.1094ZM96.9219 15.4844C96.9219 16.7344 96.6979 17.901 96.25 18.9844C95.8021 20.0573 95.1927 20.9896 94.4219 21.7812C93.651 22.5625 92.7448 23.1823 91.7031 23.6406C90.6719 24.0885 89.5625 24.3125 88.375 24.3125C87.1979 24.3125 86.0885 24.0885 85.0469 23.6406C84.0156 23.1823 83.1094 22.5625 82.3281 21.7812C81.5573 20.9896 80.9479 20.0573 80.5 18.9844C80.0521 17.901 79.8281 16.7344 79.8281 15.4844C79.8281 14.2135 80.0521 13.0365 80.5 11.9531C80.9479 10.8698 81.5573 9.9375 82.3281 9.15625C83.1094 8.36458 84.0156 7.74479 85.0469 7.29688C86.0885 6.84896 87.1979 6.625 88.375 6.625C89.5625 6.625 90.6719 6.83854 91.7031 7.26562C92.7448 7.68229 93.651 8.28125 94.4219 9.0625C95.1927 9.83333 95.8021 10.7656 96.25 11.8594C96.6979 12.9427 96.9219 14.151 96.9219 15.4844ZM92.625 15.4844C92.625 14.7969 92.5104 14.1771 92.2812 13.625C92.0625 13.0625 91.7604 12.5833 91.375 12.1875C90.9896 11.7812 90.5365 11.474 90.0156 11.2656C89.5052 11.0469 88.9583 10.9375 88.375 10.9375C87.7917 10.9375 87.2396 11.0469 86.7188 11.2656C86.2083 11.474 85.7604 11.7812 85.375 12.1875C85 12.5833 84.7031 13.0625 84.4844 13.625C84.2656 14.1771 84.1562 14.7969 84.1562 15.4844C84.1562 16.1302 84.2656 16.7292 84.4844 17.2812C84.7031 17.8333 85 18.3125 85.375 18.7188C85.7604 19.125 86.2083 19.4479 86.7188 19.6875C87.2396 19.9167 87.7917 20.0312 88.375 20.0312C88.9583 20.0312 89.5052 19.9219 90.0156 19.7031C90.5365 19.4844 90.9896 19.1771 91.375 18.7812C91.7604 18.3854 92.0625 17.9062 92.2812 17.3438C92.5104 16.7812 92.625 16.1615 92.625 15.4844ZM103.547 24H99.2812V7.26562H100.312L101.719 9.25C102.406 8.625 103.188 8.14583 104.062 7.8125C104.938 7.46875 105.844 7.29688 106.781 7.29688H110.547V11.5469H106.781C106.333 11.5469 105.911 11.6302 105.516 11.7969C105.12 11.9635 104.776 12.1927 104.484 12.4844C104.193 12.776 103.964 13.1198 103.797 13.5156C103.63 13.9115 103.547 14.3333 103.547 14.7812V24ZM118.875 19.9062C119.042 19.9583 119.208 19.9948 119.375 20.0156C119.542 20.026 119.708 20.0312 119.875 20.0312C120.292 20.0312 120.693 19.974 121.078 19.8594C121.464 19.7448 121.823 19.5833 122.156 19.375C122.5 19.1562 122.802 18.8958 123.062 18.5938C123.333 18.2812 123.552 17.9375 123.719 17.5625L126.844 20.7031C126.448 21.2656 125.99 21.7708 125.469 22.2188C124.958 22.6667 124.401 23.0469 123.797 23.3594C123.203 23.6719 122.573 23.9062 121.906 24.0625C121.25 24.2292 120.573 24.3125 119.875 24.3125C118.698 24.3125 117.589 24.0938 116.547 23.6562C115.516 23.2188 114.609 22.6094 113.828 21.8281C113.057 21.0469 112.448 20.1198 112 19.0469C111.552 17.9635 111.328 16.776 111.328 15.4844C111.328 14.1615 111.552 12.9531 112 11.8594C112.448 10.7656 113.057 9.83333 113.828 9.0625C114.609 8.29167 115.516 7.69271 116.547 7.26562C117.589 6.83854 118.698 6.625 119.875 6.625C120.573 6.625 121.255 6.70833 121.922 6.875C122.589 7.04167 123.219 7.28125 123.812 7.59375C124.417 7.90625 124.979 8.29167 125.5 8.75C126.021 9.19792 126.479 9.70312 126.875 10.2656L118.875 19.9062ZM121.062 11.1094C120.865 11.0365 120.667 10.9896 120.469 10.9688C120.281 10.9479 120.083 10.9375 119.875 10.9375C119.292 10.9375 118.74 11.0469 118.219 11.2656C117.708 11.474 117.26 11.776 116.875 12.1719C116.5 12.5677 116.203 13.0469 115.984 13.6094C115.766 14.1615 115.656 14.7865 115.656 15.4844C115.656 15.6406 115.661 15.8177 115.672 16.0156C115.693 16.2135 115.719 16.4167 115.75 16.625C115.792 16.8229 115.839 17.0156 115.891 17.2031C115.943 17.3906 116.01 17.5573 116.094 17.7031L121.062 11.1094Z" fill="#CB571B"/>
</svg>
